<svg width="41" height="40" viewBox="0 0 41 40" fill="none" xmlns="http://www.w3.org/2000/svg">
<circle cx="20.5" cy="20" r="20" fill="#F7F7F7"/>
<rect width="26.6667" height="26.6667" transform="translate(7.16602 6.66602)" fill="#F7F7F7"/>
<path d="M20.4998 8.88867C14.3553 8.88867 9.38867 13.8553 9.38867 19.9998C9.38867 26.1442 14.3553 31.1109 20.4998 31.1109C26.6442 31.1109 31.6109 26.1442 31.6109 19.9998C31.6109 13.8553 26.6442 8.88867 20.4998 8.88867ZM26.0553 23.9887L24.4887 25.5553L20.4998 21.5664L16.5109 25.5553L14.9442 23.9887L18.9331 19.9998L14.9442 16.0109L16.5109 14.4442L20.4998 18.4331L24.4887 14.4442L26.0553 16.0109L22.0664 19.9998L26.0553 23.9887Z" fill="#7B7B7B"/>
</svg>
