<svg width="104" height="20" viewBox="0 0 104 20" fill="none" xmlns="http://www.w3.org/2000/svg">
<path fill-rule="evenodd" clip-rule="evenodd" d="M41.1913 8.86315V8.57741H33.5176V10.6112H38.3793C37.7439 11.9141 36.4726 12.6766 34.932 12.6766C32.628 12.6766 30.8643 10.9445 30.8643 8.70489C30.8643 6.49644 32.4853 4.7168 34.8045 4.7168C36.1709 4.7168 37.2991 5.25713 38.03 6.27383H40.5878C39.8253 4.16049 37.4102 2.61945 34.8524 2.61945C31.4207 2.61945 28.6719 5.30429 28.6719 8.67252C28.6719 12.1043 31.4522 14.7736 35.0587 14.7736C38.522 14.7736 41.1913 12.0567 41.1913 8.86315ZM43.4441 14.5669V5.76508H41.3307V14.5669H43.4441ZM43.4601 4.4942V2.38086H41.3467V4.4942H43.4601ZM53.291 10.1344C53.291 7.48117 51.4482 5.55846 48.9061 5.55846C47.7143 5.55846 46.6976 6.00327 46.0146 6.79777V5.76508H44.0763V17.5059H46.1897V13.7405C46.744 14.2396 47.3139 14.545 47.9749 14.684C47.5245 14.071 47.1368 13.0495 46.959 12.2154C46.4027 11.7322 46.0622 11.0021 46.0622 10.15C46.0622 8.64055 47.1744 7.49676 48.6363 7.49676C50.0662 7.49676 51.1625 8.65654 51.1625 10.1816C51.1625 11.263 50.5874 12.1694 49.7393 12.5875C49.9883 13.1506 50.5434 13.6949 51.0654 14.2192C52.4246 13.4531 53.2914 11.9568 53.2914 10.1344H53.291ZM62.7091 10.1344C62.7091 7.48117 60.8663 5.55846 58.3242 5.55846C57.1324 5.55846 56.1157 6.00327 55.4323 6.79777V5.76508H53.494V17.5059H55.6074V13.7405C56.4019 14.4554 57.2279 14.7732 58.3082 14.7732H58.3114C57.9245 14.2896 57.5772 13.4903 57.3594 12.7389C56.246 12.4336 55.4807 11.4281 55.4807 10.1496C55.4807 8.64015 56.5929 7.49636 58.0544 7.49636C59.4844 7.49636 60.5806 8.65614 60.5806 10.1812C60.5806 11.044 60.2149 11.7954 59.6362 12.2762L59.9304 12.3797C60.0838 12.8948 60.5234 13.3944 60.9958 13.8775C62.0565 13.0515 62.7095 11.7154 62.7095 10.1336L62.7091 10.1344ZM71.714 10.2935C71.714 7.5607 69.7913 5.55886 67.17 5.55886C64.5807 5.55886 62.5309 7.60866 62.5309 10.1984C62.5309 12.7721 64.6122 14.774 67.2975 14.774C69.0767 14.774 70.9039 13.7732 71.4918 11.9616H69.1882C68.6479 12.5971 68.124 12.8357 67.2499 12.8357C65.995 12.8357 65.0734 12.1682 64.8189 11.1036H71.6349C71.6984 10.8018 71.7144 10.6112 71.7144 10.2935H71.714ZM69.633 9.24482H64.7553C65.089 8.11661 65.9467 7.49716 67.202 7.49716C68.5048 7.49716 69.3625 8.11661 69.633 9.24482ZM76.0166 7.59267V5.55886H75.8575C74.9519 5.55886 74.5071 5.81304 73.9512 6.62353V5.76548H72.0125V14.5673H74.1259V9.67404C74.1259 8.30764 74.7453 7.62465 76.0166 7.59267ZM85.3392 10.2459C85.3392 7.65622 83.3534 5.66997 80.7636 5.66997C79.2861 5.66997 78.0788 6.27383 77.3478 7.37007V5.87658H76.1721V17.6175H77.3478V13.0735C78.1104 14.1857 79.2861 14.7736 80.7321 14.7736C83.3218 14.7736 85.3392 12.7877 85.3392 10.2455V10.2459ZM84.1474 10.2459C84.1474 12.2002 82.67 13.6937 80.7317 13.6937C78.7458 13.6937 77.2679 12.1842 77.2679 10.1824C77.2679 8.26009 78.7934 6.75061 80.7157 6.75061C82.67 6.75061 84.1474 8.2441 84.1474 10.2459ZM94.8005 14.5673V5.87698H93.6247V7.41803C92.7667 6.21069 91.7024 5.67036 90.1929 5.67036C87.5872 5.67036 85.6174 7.64063 85.6174 10.2463C85.6174 12.8361 87.6032 14.7744 90.2725 14.7744C91.75 14.7744 92.7031 14.282 93.6247 13.0427V14.5677H94.8005V14.5673ZM93.6247 10.1824C93.6247 12.1523 92.1632 13.6937 90.2884 13.6937C88.3186 13.6937 86.8091 12.1523 86.8091 10.1664C86.8091 8.27567 88.3342 6.75061 90.2249 6.75061C92.1316 6.75061 93.6251 8.2441 93.6251 10.1824H93.6247ZM103.118 5.87698H101.863L98.9233 12.8041L96.1745 5.87698H94.8876L98.2558 14.2816L96.8419 17.6179H98.0972L103.118 5.87698Z" fill="#0B002A"/>
<path fill-rule="evenodd" clip-rule="evenodd" d="M11.7001 19.3446H3.66876C3.77786 17.7492 2.95499 16.6721 0.960744 16.2461L0.882812 2.65566C2.33154 2.12333 3.23914 1.20374 3.74709 0L17.1033 0.0779314C17.7404 1.52985 18.8098 2.26121 20.2538 2.36912L20.3841 5.46759L16.2185 5.59747L16.1402 3.56686L4.84093 3.77548L5.04915 15.6998L8.74589 15.5271C8.59563 15.05 8.47293 14.5408 8.37862 14.0057C10.8496 12.1585 12.2176 11.1682 16.0231 10.7593C16.1206 12.6117 15.8784 13.7903 16.6669 15.7625C17.5777 18.0389 20.5219 19.996 20.5115 20C15.9464 18.232 15.4528 15.8748 14.7038 12.0522C13.65 12.1589 12.5969 12.471 11.7417 12.9166C11.175 13.212 9.90447 14.1164 9.72583 14.4641C9.16033 15.5627 11.2077 18.7987 11.9387 19.1951L11.9239 19.4321C11.848 19.4053 11.7732 19.3757 11.6993 19.3442L11.7001 19.345V19.3446ZM10.4756 15.7214H14.6511C15.024 16.9743 16.587 18.1616 17.537 19.281H12.4798C11.4999 18.204 10.48 17.0202 10.4756 15.7214ZM20.9875 19.7422C19.7566 17.3116 18.8518 14.8449 21.9335 10.4784C22.1873 10.1191 22.5541 9.8833 22.6876 9.44809C21.595 8.72912 20.8337 8.21997 19.3138 7.73479C18.3175 7.41707 16.2117 7.01263 14.9696 7.37111C14.7822 7.74199 14.4441 8.15403 14.3506 8.47494C16.3292 8.11606 19.9944 8.60363 20.9416 9.69067C20.8121 10.0376 20.5647 10.3401 20.3793 10.7074C19.0133 13.1225 18.18 16.2745 20.9875 19.7418V19.7422ZM20.5535 19.7366C19.8641 18.5277 18.64 17.6796 18.2907 14.6695C17.9966 12.1313 18.9002 11.0711 19.311 9.68748C17.8671 8.82104 12.5645 9.13396 11.0591 10.5048L10.9084 11.5938C12.1613 11.0818 12.8223 10.6666 14.305 10.4068C15.3285 10.2278 16.8548 10.1143 17.6788 10.4456C17.3819 11.8827 16.8719 12.6497 17.2756 14.7666C17.435 15.6055 17.6996 16.3276 18.0809 17.0342C18.3087 17.4558 19.6795 19.2147 20.5535 19.7366Z" fill="#FA3C12"/>
</svg>
