<svg width="205" height="40" viewBox="0 0 205 40" fill="none" xmlns="http://www.w3.org/2000/svg">
<path fill-rule="evenodd" clip-rule="evenodd" d="M80.613 17.7283V17.1568H65.2657V21.2244H74.9891C73.7183 23.8301 71.1757 25.3552 68.0944 25.3552C63.4865 25.3552 59.9592 21.891 59.9592 17.4117C59.9592 12.9948 63.2011 9.43556 67.8394 9.43556C70.5722 9.43556 72.8286 10.5162 74.2906 12.5496H79.406C77.881 8.32294 73.0508 5.24085 67.9353 5.24085C61.0718 5.24085 55.5742 10.6105 55.5742 17.347C55.5742 24.2106 61.1349 29.5491 68.3478 29.5491C75.2745 29.5491 80.613 24.1154 80.613 17.7283ZM85.1186 29.1358V11.5321H80.8919V29.1358H85.1186ZM85.1506 8.99035V4.76367H80.9239V8.99035H85.1506ZM104.812 20.2708C104.812 14.9643 101.127 11.1189 96.0426 11.1189C93.6591 11.1189 91.6257 12.0085 90.2597 13.5975V11.5321H86.3831V35.0139H90.6098V27.4829C91.7184 28.4812 92.8582 29.0919 94.1802 29.37C93.2794 28.1439 92.5041 26.1009 92.1484 24.4328C91.0358 23.4664 90.3548 22.0061 90.3548 20.302C90.3548 17.2831 92.5793 14.9955 95.5031 14.9955C98.363 14.9955 100.555 17.315 100.555 20.3651C100.555 22.528 99.4052 24.3408 97.7091 25.1769C98.2071 26.3031 99.3173 27.3918 100.361 28.4404C103.08 26.9082 104.813 23.9156 104.813 20.2708H104.812ZM123.649 20.2708C123.649 14.9643 119.963 11.1189 114.879 11.1189C112.495 11.1189 110.462 12.0085 109.095 13.5975V11.5321H105.219V35.0139H109.445V27.4829C111.034 28.9128 112.686 29.5483 114.847 29.5483H114.853C114.08 28.5811 113.385 26.9825 112.949 25.4798C110.722 24.8692 109.192 22.8581 109.192 20.3012C109.192 17.2823 111.416 14.9947 114.339 14.9947C117.199 14.9947 119.392 17.3142 119.392 20.3643C119.392 22.09 118.66 23.5927 117.503 24.5543L118.091 24.7613C118.398 25.7916 119.277 26.7907 120.222 27.757C122.343 26.1049 123.65 23.4328 123.65 20.2692L123.649 20.2708ZM141.658 20.5889C141.658 15.1234 137.813 11.1197 132.57 11.1197C127.392 11.1197 123.292 15.2193 123.292 20.3987C123.292 25.5462 127.455 29.5499 132.825 29.5499C136.384 29.5499 140.038 27.5484 141.214 23.9252H136.607C135.526 25.1961 134.478 25.6733 132.73 25.6733C130.221 25.6733 128.377 24.3384 127.868 22.2091H141.5C141.627 21.6057 141.659 21.2244 141.659 20.5889H141.658ZM137.497 18.4916H127.741C128.409 16.2352 130.124 14.9963 132.634 14.9963C135.24 14.9963 136.955 16.2352 137.497 18.4916ZM150.264 15.1873V11.1197H149.946C148.134 11.1197 147.245 11.628 146.133 13.249V11.5329H142.256V29.1366H146.482V19.35C146.482 16.6172 147.721 15.2512 150.264 15.1873ZM168.909 20.4938C168.909 15.3144 164.937 11.3419 159.758 11.3419C156.803 11.3419 154.388 12.5496 152.926 14.7421V11.7551H150.575V35.2369H152.926V26.1489C154.451 28.3733 156.803 29.5491 159.695 29.5491C164.874 29.5491 168.909 25.5774 168.909 20.493V20.4938ZM166.525 20.4938C166.525 24.4024 163.57 27.3894 159.694 27.3894C155.722 27.3894 152.766 24.3704 152.766 20.3667C152.766 16.5221 155.817 13.5032 159.662 13.5032C163.57 13.5032 166.525 16.4902 166.525 20.4938ZM187.831 29.1366V11.7559H185.48V14.838C183.764 12.4233 181.635 11.3427 178.616 11.3427C173.405 11.3427 169.465 15.2832 169.465 20.4946C169.465 25.6741 173.437 29.5507 178.775 29.5507C181.73 29.5507 183.637 28.5659 185.48 26.0873V29.1374H187.831V29.1366ZM185.48 20.3667C185.48 24.3065 182.557 27.3894 178.807 27.3894C174.868 27.3894 171.849 24.3065 171.849 20.3348C171.849 16.5533 174.899 13.5032 178.68 13.5032C182.494 13.5032 185.481 16.4902 185.481 20.3667H185.48ZM204.466 11.7559H201.956L196.077 25.6101L190.579 11.7559H188.006L194.742 28.5651L191.914 35.2377H194.425L204.466 11.7559Z" fill="#0B002A"/>
<path fill-rule="evenodd" clip-rule="evenodd" d="M21.6346 38.6892H5.5719C5.7901 35.4984 4.14435 33.3443 0.155863 32.4922L0 5.31133C2.89745 4.24666 4.71265 2.40748 5.72856 0L32.4411 0.155863C33.7151 3.05971 35.854 4.52242 38.7419 4.73823L39.0025 10.9352L30.6714 11.1949L30.5147 7.13372L7.91623 7.55096L8.33267 31.3996L15.7262 31.0543C15.4256 30.0999 15.1802 29.0816 14.9916 28.0114C19.9337 24.317 22.6697 22.3363 30.2806 21.5187C30.4756 25.2234 29.9912 27.5805 31.5682 31.5251C33.3898 36.0779 39.2782 39.992 39.2575 40C30.1271 36.4639 29.14 31.7497 27.6421 24.1044C25.5343 24.3178 23.4282 24.9421 21.7177 25.8333C20.5843 26.4239 18.0433 28.2328 17.686 28.9281C16.555 31.1254 20.6498 37.5973 22.1117 38.3902L22.0822 38.8642C21.9303 38.8106 21.7808 38.7515 21.633 38.6884L21.6346 38.69V38.6892ZM19.1855 31.4427H27.5366C28.2823 33.9485 31.4084 36.3232 33.3083 38.5621H23.194C21.2341 36.408 19.1943 34.0404 19.1855 31.4427ZM40.2094 39.4845C37.7476 34.6231 35.938 29.6899 42.1013 20.9568C42.6089 20.2382 43.3427 19.7666 43.6096 18.8962C41.4243 17.4582 39.9017 16.4399 36.862 15.4696C34.8693 14.8341 30.6578 14.0253 28.1736 14.7422C27.7987 15.484 27.1225 16.3081 26.9355 16.9499C30.8928 16.2321 38.2232 17.2073 40.1175 19.3813C39.8585 20.0751 39.3638 20.6802 38.9929 21.4148C36.2609 26.2449 34.5944 32.549 40.2094 39.4837V39.4845ZM39.3414 39.4733C37.9626 37.0554 35.5143 35.3593 34.8158 29.339C34.2275 24.2626 36.0347 22.1421 36.8564 19.375C33.9685 17.6421 23.3634 18.2679 20.3525 21.0095L20.0512 23.1876C22.557 22.1637 23.879 21.3332 26.8444 20.8137C28.8914 20.4556 31.9439 20.2286 33.592 20.8912C32.9982 23.7655 31.9783 25.2993 32.7855 29.5332C33.1045 31.2109 33.6336 32.6553 34.3961 34.0684C34.8517 34.9117 37.5933 38.4294 39.3414 39.4733Z" fill="#FA3C12"/>
</svg>
