<svg width="40" height="40" viewBox="0 0 40 40" fill="none" xmlns="http://www.w3.org/2000/svg">
<circle cx="20" cy="20" r="20" fill="#F7F7F7"/>
<rect width="26.6667" height="26.6667" transform="translate(6.66797 6.66602)" fill="#F7F7F7"/>
<path d="M20.0017 8.88867C13.8573 8.88867 8.89062 13.8553 8.89062 19.9998C8.89062 26.1442 13.8573 31.1109 20.0017 31.1109C26.1462 31.1109 31.1128 26.1442 31.1128 19.9998C31.1128 13.8553 26.1462 8.88867 20.0017 8.88867ZM25.5573 23.9887L23.9906 25.5553L20.0017 21.5664L16.0128 25.5553L14.4462 23.9887L18.4351 19.9998L14.4462 16.0109L16.0128 14.4442L20.0017 18.4331L23.9906 14.4442L25.5573 16.0109L21.5684 19.9998L25.5573 23.9887Z" fill="#7B7B7B"/>
</svg>
