<svg width="28" height="25" viewBox="0 0 28 25" fill="none" xmlns="http://www.w3.org/2000/svg">
<g clip-path="url(#clip0_1991_22235)">
<path d="M17.0298 2.30781C16.1665 0.820312 14.9915 0 13.7212 0C12.4509 0 11.2751 0.820312 10.4118 2.30781L0.826638 18.818C-0.0483619 20.3391 -0.142112 21.9187 0.568826 23.1508C1.24539 24.3227 2.57273 24.9969 4.21258 25H23.2298C24.872 24.9969 26.2016 24.325 26.8759 23.1555C27.5829 21.9312 27.4876 20.3578 26.6141 18.8391L17.0298 2.30781ZM26.2001 22.7648C25.668 23.6867 24.5852 24.2164 23.2282 24.2188H4.21336C2.86101 24.2164 1.77976 23.6844 1.24539 22.7602C0.677419 21.7758 0.771951 20.4813 1.5032 19.2086L11.0876 2.7C11.8055 1.4625 12.7407 0.78125 13.7212 0.78125C14.7016 0.78125 15.6368 1.4625 16.354 2.7L25.9384 19.2289C26.6688 20.4992 26.7641 21.7883 26.2001 22.7648Z" fill="#FA3C12"/>
<path d="M13.7219 15.625C13.8255 15.625 13.9248 15.5838 13.9981 15.5106C14.0713 15.4373 14.1125 15.338 14.1125 15.2344V7.42188C14.1125 7.31827 14.0713 7.21892 13.9981 7.14566C13.9248 7.0724 13.8255 7.03125 13.7219 7.03125C13.6183 7.03125 13.5189 7.0724 13.4457 7.14566C13.3724 7.21892 13.3312 7.31827 13.3312 7.42188V15.2344C13.3312 15.338 13.3724 15.4373 13.4457 15.5106C13.5189 15.5838 13.6183 15.625 13.7219 15.625ZM13.6719 17.5781C12.8102 17.5781 12.1094 18.2789 12.1094 19.1406C12.1094 20.0023 12.8102 20.7031 13.6719 20.7031C14.5336 20.7031 15.2344 20.0023 15.2344 19.1406C15.2344 18.2789 14.5336 17.5781 13.6719 17.5781ZM13.6719 19.9219C13.4707 19.9129 13.2808 19.8266 13.1416 19.6811C13.0025 19.5356 12.9248 19.342 12.9248 19.1406C12.9248 18.9393 13.0025 18.7457 13.1416 18.6001C13.2808 18.4546 13.4707 18.3684 13.6719 18.3594C13.873 18.3684 14.063 18.4546 14.2021 18.6001C14.3413 18.7457 14.419 18.9393 14.419 19.1406C14.419 19.342 14.3413 19.5356 14.2021 19.6811C14.063 19.8266 13.873 19.9129 13.6719 19.9219Z" fill="#FA3C12"/>
</g>
<defs>
<clipPath id="clip0_1991_22235">
<rect width="27.3438" height="25" fill="white"/>
</clipPath>
</defs>
</svg>
