<svg width="20" height="21" viewBox="0 0 20 21" fill="none" xmlns="http://www.w3.org/2000/svg">
<path d="M9.99906 2.16602C14.6024 2.16602 18.3341 5.89768 18.3341 10.501C18.3341 15.1035 14.6024 18.8352 9.99906 18.8352C5.39573 18.8352 1.66406 15.1035 1.66406 10.501C1.66406 5.89768 5.39573 2.16602 9.99906 2.16602ZM9.99906 3.41602C9.06224 3.40586 8.1327 3.5816 7.26425 3.93308C6.39579 4.28455 5.60567 4.80478 4.93961 5.46365C4.27356 6.12253 3.74479 6.90696 3.38391 7.77155C3.02304 8.63614 2.83723 9.56372 2.83723 10.5006C2.83723 11.4375 3.02304 12.3651 3.38391 13.2296C3.74479 14.0942 4.27356 14.8787 4.93961 15.5375C5.60567 16.1964 6.39579 16.7166 7.26425 17.0681C8.1327 17.4196 9.06224 17.5953 9.99906 17.5852C11.8591 17.5567 13.6333 16.7977 14.9385 15.4723C16.2438 14.1469 16.9754 12.3613 16.9754 10.501C16.9754 8.64078 16.2438 6.85517 14.9385 5.52973C13.6333 4.20429 11.8591 3.44538 9.99906 3.41685V3.41602ZM9.99656 5.49935C11.3222 5.49935 12.5935 6.02596 13.5309 6.96333C14.4683 7.9007 14.9949 9.17204 14.9949 10.4977C14.9949 11.8233 14.4683 13.0947 13.5309 14.032C12.5935 14.9694 11.3222 15.496 9.99656 15.496C8.67092 15.496 7.39958 14.9694 6.46221 14.032C5.52484 13.0947 4.99823 11.8233 4.99823 10.4977C4.99823 9.17204 5.52484 7.9007 6.46221 6.96333C7.39958 6.02596 8.67092 5.49935 9.99656 5.49935Z" fill="#858095"/>
</svg>
