<svg width="21" height="21" viewBox="0 0 21 21" fill="none" xmlns="http://www.w3.org/2000/svg">
<path d="M9.0957 5.50042C9.0957 5.82872 9.03104 6.15381 8.9054 6.45713C8.77976 6.76044 8.59562 7.03604 8.36347 7.26818C8.13132 7.50033 7.85573 7.68448 7.55241 7.81012C7.2491 7.93575 6.92401 8.00042 6.5957 8.00042C6.2674 8.00042 5.94231 7.93575 5.63899 7.81012C5.33568 7.68448 5.06008 7.50033 4.82794 7.26818C4.59579 7.03604 4.41164 6.76044 4.286 6.45713C4.16037 6.15381 4.0957 5.82872 4.0957 5.50042C4.0957 4.83738 4.3591 4.20149 4.82794 3.73265C5.29678 3.26381 5.93266 3.00042 6.5957 3.00042C7.25874 3.00042 7.89463 3.26381 8.36347 3.73265C8.83231 4.20149 9.0957 4.83738 9.0957 5.50042ZM4.30404 8.83375C3.91726 8.83375 3.54633 8.9874 3.27284 9.26089C2.99935 9.53438 2.8457 9.90531 2.8457 10.2921V14.2504C2.8457 14.7429 2.9427 15.2305 3.13115 15.6855C3.31961 16.1405 3.59583 16.5538 3.94405 16.9021C4.29227 17.2503 4.70567 17.5265 5.16064 17.715C5.61561 17.9034 6.10325 18.0004 6.5957 18.0004C7.08816 18.0004 7.5758 17.9034 8.03077 17.715C8.48574 17.5265 8.89913 17.2503 9.24735 16.9021C9.59557 16.5538 9.8718 16.1405 10.0603 15.6855C10.2487 15.2305 10.3457 14.7429 10.3457 14.2504V10.2921C10.3457 9.90531 10.1921 9.53438 9.91857 9.26089C9.64508 8.9874 9.27414 8.83375 8.88737 8.83375H4.30404ZM9.3957 17.8788C9.95106 17.451 10.4007 16.9014 10.7099 16.2723C11.0191 15.6432 11.1796 14.9514 11.179 14.2504V10.2921C11.179 9.73792 10.9824 9.23042 10.6549 8.83375H12.6374C13.4424 8.83375 14.0957 9.48708 14.0957 10.2921V14.2504C14.0958 14.8239 13.9644 15.3897 13.7115 15.9044C13.4587 16.4192 13.0912 16.869 12.6373 17.2195C12.1833 17.5699 11.6551 17.8116 11.0931 17.9258C10.5311 18.0401 9.95046 18.024 9.3957 17.8788ZM9.92904 5.50042C9.92904 6.33375 9.6232 7.09458 9.1182 7.67875C9.49861 7.89281 9.92844 8.00353 10.3649 7.99991C10.8014 7.9963 11.2293 7.87846 11.6061 7.65812C11.9829 7.43779 12.2955 7.12263 12.5127 6.74401C12.7299 6.36539 12.8442 5.9365 12.8442 5.5C12.8442 5.0635 12.7299 4.63461 12.5127 4.25599C12.2955 3.87737 11.9829 3.56221 11.6061 3.34188C11.2293 3.12154 10.8014 3.00371 10.3649 3.00009C9.92844 2.99647 9.49861 3.10719 9.1182 3.32125C9.6232 3.90625 9.92904 4.66792 9.92904 5.50042ZM13.1457 17.8788C13.7011 17.451 14.1507 16.9014 14.4599 16.2723C14.7691 15.6432 14.9296 14.9514 14.929 14.2504V10.2921C14.929 9.73792 14.7324 9.23042 14.4049 8.83375H16.3874C17.1924 8.83375 17.8457 9.48708 17.8457 10.2921V14.2504C17.8458 14.8239 17.7144 15.3897 17.4615 15.9044C17.2087 16.4192 16.8412 16.869 16.3873 17.2195C15.9333 17.5699 15.4051 17.8116 14.8431 17.9258C14.2811 18.0401 13.7005 18.024 13.1457 17.8788ZM13.679 5.50042C13.679 6.33375 13.3732 7.09458 12.8682 7.67875C13.2486 7.89281 13.6784 8.00353 14.1149 7.99991C14.5514 7.9963 14.9793 7.87846 15.3561 7.65812C15.7329 7.43779 16.0455 7.12263 16.2627 6.74401C16.4799 6.36539 16.5942 5.9365 16.5942 5.5C16.5942 5.0635 16.4799 4.63461 16.2627 4.25599C16.0455 3.87737 15.7329 3.56221 15.3561 3.34188C14.9793 3.12154 14.5514 3.00371 14.1149 3.00009C13.6784 2.99647 13.2486 3.10719 12.8682 3.32125C13.3732 3.90625 13.679 4.66792 13.679 5.50042Z" fill="#7B7B7B"/>
</svg>
