<svg width="40" height="41" viewBox="0 0 40 41" fill="none" xmlns="http://www.w3.org/2000/svg">
<circle cx="20" cy="20.5" r="20" fill="#FCFCFC"/>
<path d="M15 13.834H25V14.6673H27.5V16.334H25V18.0007H27.5V19.6673H25V21.334H27.5V23.0007H25V24.6673H27.5V26.334H25V27.1673H15V26.334H12.5V24.6673H15V23.0007H12.5V21.334H15V19.6673H12.5V18.0007H15V16.334H12.5V14.6673H15V13.834ZM19.1667 23.0007V25.5007H20V23.0007H19.1667ZM20.8333 23.0007V25.5007H21.6667V23.0007H20.8333ZM22.5 23.0007V25.5007H23.3333V23.0007H22.5Z" fill="#F7990D"/>
</svg>
