<svg width="40" height="40" viewBox="0 0 40 40" fill="none" xmlns="http://www.w3.org/2000/svg">
<circle cx="20" cy="20" r="20" fill="#F7F7F7"/>
<g clip-path="url(#clip0_3301_16744)">
<path d="M20.401 28.6436C20.751 28.6356 21.0868 28.504 21.3491 28.2722C21.6114 28.0404 21.7833 27.7233 21.8343 27.377H18.9121C18.9646 27.7327 19.1445 28.0572 19.4184 28.2902C19.6923 28.5232 20.0415 28.6488 20.401 28.6436Z" fill="#7B7B7B"/>
<path d="M28.6513 25.2276L28.4624 25.0609C27.9265 24.5835 27.4575 24.036 27.0679 23.4332C26.6425 22.6012 26.3875 21.6927 26.3179 20.7609V18.0165C26.3157 17.6831 26.2859 17.3505 26.229 17.022C25.288 16.8286 24.4427 16.3159 23.8363 15.5708C23.2298 14.8257 22.8995 13.8939 22.9013 12.9332V12.5832C22.3212 12.2977 21.698 12.11 21.0568 12.0276V11.3276C21.0568 11.1309 20.9787 10.9423 20.8396 10.8032C20.7005 10.6641 20.5118 10.5859 20.3151 10.5859C20.1184 10.5859 19.9298 10.6641 19.7907 10.8032C19.6516 10.9423 19.5735 11.1309 19.5735 11.3276V12.0554C18.1378 12.2579 16.8238 12.973 15.8742 14.0687C14.9245 15.1643 14.4033 16.5666 14.4068 18.0165V20.7609C14.3372 21.6927 14.0822 22.6012 13.6568 23.4332C13.274 24.0345 12.8125 24.5819 12.2846 25.0609L12.0957 25.2276V26.7943H28.6513V25.2276Z" fill="#7B7B7B"/>
<path d="M27.0668 15.7099C28.601 15.7099 29.8446 14.4662 29.8446 12.9321C29.8446 11.398 28.601 10.1543 27.0668 10.1543C25.5327 10.1543 24.2891 11.398 24.2891 12.9321C24.2891 14.4662 25.5327 15.7099 27.0668 15.7099Z" fill="#7B7B7B"/>
</g>
<defs>
<clipPath id="clip0_3301_16744">
<rect width="20" height="20" fill="white" transform="translate(10.4004 9.59961)"/>
</clipPath>
</defs>
</svg>
