<svg width="14" height="21" viewBox="0 0 14 21" fill="none" xmlns="http://www.w3.org/2000/svg">
<path fill-rule="evenodd" clip-rule="evenodd" d="M11.3522 15.4261C12.1151 15.3171 12.0007 14.6298 12.0011 13.9244C12.0014 13.5355 12.0336 13.308 11.7954 13.0509C11.5636 12.8008 11.3032 12.8495 10.9214 12.8496L2.41142 12.8495C1.96822 12.8491 1.82418 12.822 1.58791 13.1013C1.37985 13.3472 1.42285 13.6331 1.42291 13.9892C1.42298 14.7277 1.31795 15.2808 2.07287 15.4302C2.22764 16.0432 2.31737 16.8596 2.42564 17.504C2.54147 18.1936 2.65498 18.8895 2.77206 19.5829C2.84432 20.011 2.86848 20.2393 3.17845 20.4063C3.4335 20.5437 3.9735 20.4879 4.28809 20.4879H9.14168C9.47356 20.4879 10.0142 20.5456 10.2671 20.3905C10.5487 20.2177 10.5833 20.0031 10.6535 19.5749C10.7672 18.8813 10.8825 18.1929 10.9984 17.4989C11.1065 16.8521 11.1979 16.0431 11.3522 15.4261Z" fill="#7B7B7B"/>
<path fill-rule="evenodd" clip-rule="evenodd" d="M6.79326 0.521031C5.25028 0.700072 3.95236 2.07911 4.17053 3.85318C4.35625 5.36408 5.74846 6.6502 7.50699 6.43403C9.01458 6.24868 10.3018 4.84343 10.0863 3.11841C9.89694 1.60252 8.53219 0.319211 6.79332 0.520968L6.79326 0.521031Z" fill="#7B7B7B"/>
<path fill-rule="evenodd" clip-rule="evenodd" d="M9.59485 9.231C10.5861 9.231 11.3726 8.94175 11.9948 8.2357C12.0605 8.161 12.1345 8.09635 12.1969 8.01753C12.3763 7.79075 13.3533 6.43523 13.404 6.29863C12.2873 5.67688 10.6184 5.63083 9.45874 6.18511C8.92686 6.43935 8.47965 6.82801 8.08812 7.24108C7.90933 7.42979 7.22779 8.34666 7.13281 8.68695C7.50269 8.80465 7.82072 8.96597 8.24015 9.06607C8.71368 9.17902 9.08674 9.23107 9.59485 9.23107V9.231Z" fill="#7B7B7B"/>
<path fill-rule="evenodd" clip-rule="evenodd" d="M4.77182 8.61533C4.6671 8.53907 4.49143 8.39542 4.40312 8.30805C4.26577 8.172 4.19213 8.12508 4.04965 7.98304C3.93339 7.86709 3.79779 7.78528 3.68584 7.66652C3.5443 7.51637 3.46772 7.43999 3.32993 7.31118L2.30723 6.26314C2.18535 6.1095 2.09729 6.03985 1.97205 5.862C2.12151 5.92996 2.16419 6.04809 2.32614 6.21228L2.66937 6.54796C2.90738 6.76713 3.13898 6.99946 3.39771 7.21189L4.11912 7.84893C4.38702 8.06367 4.61243 8.3015 4.92383 8.47473C4.81531 7.03067 4.37941 5.77475 3.59797 5.03693C2.62806 4.12113 1.45658 4.24051 0.0274888 3.9082C-0.0935781 4.37057 0.214894 5.49586 0.376899 5.89501C0.623651 6.50303 0.966314 6.98748 1.33563 7.33184C2.15396 8.09487 3.0936 8.46007 4.24199 8.59967C4.39114 8.61777 4.60282 8.65746 4.74903 8.62307C4.75415 8.62182 4.7647 8.61914 4.77175 8.61533H4.77182Z" fill="#7B7B7B"/>
<path fill-rule="evenodd" clip-rule="evenodd" d="M6.52571 7.48632C6.58849 7.20749 6.43854 6.99662 6.2477 7.24506C5.33415 8.43413 5.81703 10.5258 6.33431 11.7498C6.5855 12.3443 7.04419 11.8915 6.82127 11.3292C6.38294 10.2237 5.96537 9.31399 6.31553 8.05564C6.36864 7.86474 6.48995 7.64508 6.52571 7.48632Z" fill="#7B7B7B"/>
<path fill-rule="evenodd" clip-rule="evenodd" d="M7.11021 4.60201H6.00319C6.01823 4.38216 5.90484 4.23363 5.62988 4.17497L5.61914 2.30162C5.81884 2.22823 5.94397 2.10148 6.01393 1.93555L7.85502 1.94628C7.94288 2.14635 8.09029 2.2472 8.2893 2.26211L8.3072 2.68922L7.73301 2.70713L7.72221 2.42718L6.16463 2.45588L6.19335 4.09959L6.70288 4.07575C6.68216 4.00997 6.66531 3.93983 6.65227 3.866C6.99288 3.61139 7.18147 3.47491 7.70605 3.41855C7.71953 3.67385 7.68608 3.83636 7.79479 4.1082C7.92035 4.42197 8.32618 4.69175 8.3248 4.69232C7.6955 4.44862 7.62742 4.12374 7.52427 3.59678C7.37899 3.61145 7.23383 3.65451 7.11595 3.71592C7.03782 3.75667 6.8627 3.88129 6.83811 3.92922C6.76017 4.08068 7.04237 4.52669 7.14315 4.58136L7.14109 4.61406C7.13061 4.61038 7.12025 4.60626 7.11007 4.60189L7.11021 4.60201ZM6.94146 4.10258H7.51697C7.56839 4.27526 7.78388 4.43895 7.9148 4.59328H7.21772C7.08262 4.44481 6.94202 4.28162 6.94146 4.10258ZM8.39045 4.65681C8.22077 4.32175 8.09602 3.98183 8.52088 3.37992C8.55583 3.33044 8.60638 3.29786 8.62479 3.23789C8.4742 3.13879 8.36924 3.06864 8.15974 3.00175C8.02239 2.95794 7.73214 2.90221 7.56089 2.95163C7.53512 3.00268 7.4885 3.05947 7.47559 3.10378C7.74836 3.05429 8.25353 3.1215 8.38415 3.27134C8.36636 3.31914 8.33223 3.36089 8.3067 3.4115C8.11842 3.74443 8.00354 4.1789 8.39058 4.65681H8.39045ZM8.3306 4.65606C8.23556 4.48943 8.06689 4.37248 8.01871 3.95761C7.97815 3.6077 8.1027 3.46155 8.15937 3.27084C7.96029 3.15146 7.2294 3.19458 7.0219 3.38354L7.00112 3.53363C7.1738 3.46305 7.2649 3.40576 7.46935 3.37C7.61044 3.34529 7.82081 3.32969 7.93439 3.37537C7.89345 3.57351 7.82325 3.67916 7.87886 3.97097C7.90082 4.08654 7.93733 4.18614 7.98981 4.28356C8.0212 4.34166 8.21016 4.58417 8.3306 4.65606Z" fill="#FCFCFC"/>
</svg>
