<svg width="30" height="30" viewBox="0 0 30 30" fill="none" xmlns="http://www.w3.org/2000/svg">
<path d="M15 30C23.2843 30 30 23.2843 30 15C30 6.71573 23.2843 0 15 0C6.71573 0 0 6.71573 0 15C0 23.2843 6.71573 30 15 30Z" fill="#FED8D0"/>
<path d="M18.4425 12.0009C18.8124 11.6195 19.0412 11.0921 19.0412 10.5098C19.0412 9.92751 18.8124 9.40016 18.4425 9.01878C18.2554 8.82357 18.0309 8.66817 17.7822 8.5619C17.5336 8.45564 17.2661 8.4007 16.9957 8.40039C16.9957 8.40039 15.9755 8.39793 14.9503 9.45511C13.9251 8.39793 12.9048 8.40039 12.9048 8.40039C12.6345 8.40073 12.3671 8.45561 12.1185 8.56172C11.8699 8.66784 11.6453 8.82301 11.4581 9.01796C11.0882 9.40016 10.8594 9.92669 10.8594 10.509C10.8594 11.0913 11.0882 11.6195 11.4581 12L14.9503 15.7818L18.4425 12.0009Z" fill="#FA3C12"/>
<path d="M13.9384 19.8531C13.9436 20.1362 13.7156 20.361 13.4327 20.352C13.1567 20.3502 12.9319 20.1222 12.9337 19.8463C12.9387 19.1831 13.2067 18.549 13.6789 18.0832C14.151 17.6175 14.7887 17.3581 15.4519 17.3621L17.9566 17.3791C18.6197 17.3841 19.2538 17.6521 19.7196 18.1242C20.1854 18.5964 20.4447 19.234 20.4407 19.8972C20.4357 20.5604 20.1677 21.1945 19.6956 21.6603C19.2235 22.1261 18.5858 22.3854 17.9226 22.3814L16.8684 22.3743C17.1639 22.0897 17.4103 21.7553 17.5897 21.3815L17.9259 21.3802C18.1231 21.3826 18.3189 21.3459 18.5019 21.2721C18.6849 21.1984 18.8514 21.089 18.9919 20.9505C19.1323 20.8119 19.2439 20.6469 19.3201 20.4649C19.3964 20.283 19.4358 20.0877 19.436 19.8904C19.4384 19.6932 19.4017 19.4974 19.3279 19.3144C19.2542 19.1314 19.1448 18.9649 19.0063 18.8244C18.8677 18.684 18.7027 18.5724 18.5207 18.4962C18.3388 18.4199 18.1435 18.3805 17.9462 18.3803L15.4486 18.3633C15.2513 18.3609 15.0555 18.3976 14.8726 18.4714C14.6896 18.5452 14.5231 18.6545 14.3826 18.793C14.2422 18.9316 14.1306 19.0966 14.0543 19.2786C13.9781 19.4605 13.9387 19.6558 13.9384 19.8531ZM16.4395 19.3677C16.7154 19.3696 16.9403 19.5975 16.9384 19.8735C16.9334 20.5367 16.6654 21.1708 16.1933 21.6365C15.7212 22.1023 15.0835 22.3616 14.4203 22.3576L11.9156 22.3406C11.2524 22.3356 10.6183 22.0676 10.1525 21.5955C9.68677 21.1234 9.42742 20.4857 9.43142 19.8225C9.43642 19.1593 9.70441 18.5252 10.1765 18.0595C10.6487 17.5937 11.2864 17.3343 11.9495 17.3383L13.0038 17.3455C12.7082 17.6301 12.4618 17.9645 12.2788 18.3418L11.9463 18.3395C11.749 18.3371 11.5532 18.3739 11.3702 18.4476C11.1873 18.5214 11.0207 18.6307 10.8803 18.7693C10.7398 18.9078 10.6283 19.0728 10.552 19.2548C10.4758 19.4368 10.4364 19.632 10.4361 19.8293C10.4337 20.0266 10.4705 20.2224 10.5442 20.4054C10.618 20.5883 10.7273 20.7549 10.8659 20.8953C11.0044 21.0358 11.1694 21.1473 11.3514 21.2236C11.5334 21.2998 11.7286 21.3392 11.9259 21.3395L14.4235 21.3564C14.6208 21.3589 14.8166 21.3221 14.9996 21.2484C15.1826 21.1746 15.3491 21.0653 15.4895 20.9267C15.63 20.7882 15.7416 20.6231 15.8178 20.4412C15.894 20.2592 15.9334 20.0639 15.9337 19.8666C15.932 19.8001 15.944 19.7339 15.9689 19.6721C15.9938 19.6103 16.0311 19.5544 16.0785 19.5076C16.1259 19.4608 16.1824 19.4243 16.2445 19.4002C16.3066 19.3762 16.3729 19.3651 16.4395 19.3677Z" fill="#FA3C12"/>
</svg>
