<svg width="30" height="30" viewBox="0 0 30 30" fill="none" xmlns="http://www.w3.org/2000/svg">
<circle cx="15" cy="15" r="15" fill="#FED8D0"/>
<path d="M16.7194 9.42659C16.6953 9.40725 16.6676 9.39288 16.6379 9.38429C16.6082 9.37571 16.5771 9.37308 16.5463 9.37657C16.5156 9.38005 16.4859 9.38958 16.4589 9.4046C16.4319 9.41962 16.4081 9.43984 16.3889 9.46409L14.2312 12.1885H13.0355L15.6544 8.8819C15.7502 8.76085 15.869 8.65994 16.004 8.58496C16.139 8.50998 16.2875 8.46241 16.4409 8.44499C16.5943 8.42756 16.7496 8.44063 16.898 8.48343C17.0463 8.52623 17.1848 8.59793 17.3053 8.6944L19.718 10.6271C19.9461 10.8098 20.0977 11.0713 20.1429 11.3601C20.1882 11.6489 20.1239 11.9442 19.9627 12.188H18.7373L19.1625 11.6949C19.1831 11.671 19.1987 11.6433 19.2083 11.6133C19.2179 11.5833 19.2213 11.5516 19.2185 11.5203C19.2156 11.4889 19.2064 11.4584 19.1915 11.4307C19.1765 11.4029 19.1562 11.3785 19.1316 11.3588L17.9578 10.4185L16.5666 12.1885H15.3741L17.2256 9.83253L16.7194 9.42659ZM10.3125 10.7822C9.93954 10.7822 9.58185 10.9304 9.31813 11.1941C9.05441 11.4578 8.90625 11.8155 8.90625 12.1885V18.9853C8.90625 19.5448 9.12849 20.0813 9.52407 20.4769C9.91966 20.8725 10.4562 21.0947 11.0156 21.0947H18.9844C19.5438 21.0947 20.0803 20.8725 20.4759 20.4769C20.8715 20.0813 21.0938 19.5448 21.0938 18.9853V14.7666C21.0938 14.2072 20.8715 13.6706 20.4759 13.275C20.0803 12.8795 19.5438 12.6572 18.9844 12.6572H10.3125C10.1882 12.6572 10.069 12.6078 9.98104 12.5199C9.89314 12.432 9.84375 12.3128 9.84375 12.1885C9.84375 12.0641 9.89314 11.9449 9.98104 11.857C10.069 11.7691 10.1882 11.7197 10.3125 11.7197H12.4594L13.2075 10.7822H10.3125ZM17.3438 16.4072H18.75C18.8743 16.4072 18.9935 16.4566 19.0815 16.5445C19.1694 16.6324 19.2188 16.7516 19.2188 16.876C19.2188 17.0003 19.1694 17.1195 19.0815 17.2074C18.9935 17.2953 18.8743 17.3447 18.75 17.3447H17.3438C17.2194 17.3447 17.1002 17.2953 17.0123 17.2074C16.9244 17.1195 16.875 17.0003 16.875 16.876C16.875 16.7516 16.9244 16.6324 17.0123 16.5445C17.1002 16.4566 17.2194 16.4072 17.3438 16.4072Z" fill="#FA3C12"/>
</svg>
