<svg width="40" height="40" viewBox="0 0 40 40" fill="none" xmlns="http://www.w3.org/2000/svg">
<circle cx="20" cy="20" r="20" fill="#F7F7F7"/>
<path d="M18.7522 28.1111L11.4188 20.7778C11.3077 20.6666 11.2288 20.5463 11.1822 20.4166C11.1362 20.287 11.1133 20.1481 11.1133 20C11.1133 19.8518 11.1362 19.7129 11.1822 19.5833C11.2288 19.4537 11.3077 19.3333 11.4188 19.2222L18.7522 11.8889C18.9559 11.6852 19.2103 11.5785 19.5155 11.5689C19.8214 11.56 20.0855 11.6666 20.3077 11.8889C20.5299 12.0926 20.6459 12.347 20.6555 12.6522C20.6644 12.9581 20.5577 13.2222 20.3355 13.4444L14.8911 18.8889H27.3077C27.6225 18.8889 27.8866 18.9952 28.0999 19.2078C28.3125 19.4211 28.4188 19.6852 28.4188 20C28.4188 20.3148 28.3125 20.5785 28.0999 20.7911C27.8866 21.0044 27.6225 21.1111 27.3077 21.1111H14.8911L20.3355 26.5555C20.5392 26.7592 20.6459 27.0185 20.6555 27.3333C20.6644 27.6481 20.5577 27.9074 20.3355 28.1111C20.1318 28.3333 19.8725 28.4444 19.5577 28.4444C19.2429 28.4444 18.9744 28.3333 18.7522 28.1111Z" fill="#7B7B7B"/>
</svg>
