<svg width="30" height="30" viewBox="0 0 30 30" fill="none" xmlns="http://www.w3.org/2000/svg">
<path d="M15 30C23.2843 30 30 23.2843 30 15C30 6.71573 23.2843 0 15 0C6.71573 0 0 6.71573 0 15C0 23.2843 6.71573 30 15 30Z" fill="#FED8D0"/>
<path d="M18.4425 12.0009C18.8124 11.6195 19.0412 11.0921 19.0412 10.5098C19.0412 9.92751 18.8124 9.40016 18.4425 9.01878C18.2554 8.82357 18.0309 8.66817 17.7822 8.5619C17.5336 8.45564 17.2661 8.4007 16.9957 8.40039C16.9957 8.40039 15.9755 8.39793 14.9503 9.45511C13.9251 8.39793 12.9048 8.40039 12.9048 8.40039C12.6345 8.40073 12.3671 8.45561 12.1185 8.56172C11.8699 8.66784 11.6453 8.82301 11.4581 9.01796C11.0882 9.40016 10.8594 9.92669 10.8594 10.509C10.8594 11.0913 11.0882 11.6195 11.4581 12L14.9503 15.7818L18.4425 12.0009Z" fill="#FA3C12"/>
<path d="M13.9423 19.8531C13.9475 20.1362 13.7196 20.361 13.4366 20.352C13.1606 20.3502 12.9358 20.1222 12.9376 19.8463C12.9426 19.1831 13.2106 18.549 13.6828 18.0832C14.1549 17.6175 14.7926 17.3581 15.4558 17.3621L17.9605 17.3791C18.6237 17.3841 19.2578 17.6521 19.7235 18.1242C20.1893 18.5964 20.4486 19.234 20.4446 19.8972C20.4396 20.5604 20.1716 21.1945 19.6995 21.6603C19.2274 22.1261 18.5897 22.3854 17.9265 22.3814L16.8723 22.3743C17.1678 22.0897 17.4142 21.7553 17.5937 21.3815L17.9298 21.3802C18.127 21.3826 18.3228 21.3459 18.5058 21.2721C18.6888 21.1984 18.8553 21.089 18.9958 20.9505C19.1362 20.8119 19.2478 20.6469 19.324 20.4649C19.4003 20.283 19.4397 20.0877 19.4399 19.8904C19.4423 19.6932 19.4056 19.4974 19.3318 19.3144C19.2581 19.1314 19.1487 18.9649 19.0102 18.8244C18.8716 18.684 18.7066 18.5724 18.5246 18.4962C18.3427 18.4199 18.1474 18.3805 17.9501 18.3803L15.4525 18.3633C15.2552 18.3609 15.0595 18.3976 14.8765 18.4714C14.6935 18.5452 14.527 18.6545 14.3865 18.793C14.2461 18.9316 14.1345 19.0966 14.0583 19.2786C13.982 19.4605 13.9426 19.6558 13.9423 19.8531ZM16.4434 19.3677C16.7193 19.3696 16.9442 19.5975 16.9423 19.8735C16.9373 20.5367 16.6693 21.1708 16.1972 21.6365C15.7251 22.1023 15.0874 22.3616 14.4242 22.3576L11.9195 22.3406C11.2563 22.3356 10.6222 22.0676 10.1564 21.5955C9.69068 21.1234 9.43132 20.4857 9.43533 19.8225C9.44033 19.1593 9.70832 18.5252 10.1804 18.0595C10.6526 17.5937 11.2903 17.3343 11.9535 17.3383L13.0077 17.3455C12.7121 17.6301 12.4657 17.9645 12.2827 18.3418L11.9502 18.3395C11.7529 18.3371 11.5571 18.3739 11.3742 18.4476C11.1912 18.5214 11.0246 18.6307 10.8842 18.7693C10.7438 18.9078 10.6322 19.0728 10.5559 19.2548C10.4797 19.4368 10.4403 19.632 10.44 19.8293C10.4376 20.0266 10.4744 20.2224 10.5481 20.4054C10.6219 20.5883 10.7312 20.7549 10.8698 20.8953C11.0083 21.0358 11.1733 21.1473 11.3553 21.2236C11.5373 21.2998 11.7325 21.3392 11.9298 21.3395L14.4274 21.3564C14.6247 21.3589 14.8205 21.3221 15.0035 21.2484C15.1865 21.1746 15.353 21.0653 15.4934 20.9267C15.6339 20.7882 15.7455 20.6231 15.8217 20.4412C15.8979 20.2592 15.9373 20.0639 15.9376 19.8666C15.9359 19.8001 15.9479 19.7339 15.9728 19.6721C15.9977 19.6103 16.035 19.5544 16.0824 19.5076C16.1298 19.4608 16.1863 19.4243 16.2484 19.4002C16.3105 19.3762 16.3768 19.3651 16.4434 19.3677Z" fill="#FA3C12"/>
</svg>
