<svg width="278" height="165" viewBox="0 0 278 165" fill="none" xmlns="http://www.w3.org/2000/svg">
<ellipse cx="136.641" cy="81.5712" rx="33.5399" ry="33.5516" fill="#FA3C12"/>
<path d="M148.629 73.9395L133.369 89.2048L125.738 81.5725" stroke="#FCFCFC" stroke-width="4.68585" stroke-linecap="round" stroke-linejoin="round"/>
<path d="M181.641 18.4758C181.641 18.4758 197.273 10.69 200.819 14.7708C202.767 17.0128 204.238 19.7282 202.494 21.9344C201.149 23.635 199.207 23.8518 196.932 23.4523C192.113 22.6061 192.186 15.9152 194.121 11.7713C196.791 6.04998 210.966 9.427 210.966 9.427" stroke="#A4A4A4" stroke-width="4.09858"/>
<path d="M64.7025 32.2832C67.7403 37.545 78.6367 36.9413 72.768 40.3296C66.8993 43.7179 59.6791 42.1992 56.6412 36.9374C53.6033 31.6757 55.8982 24.6634 61.7669 21.2751C67.6356 17.8868 61.6646 27.0215 64.7025 32.2832Z" fill="#FA3C12"/>
<path d="M187.368 123.416L190.112 131.862H198.993L191.808 137.082L194.553 145.528L187.368 140.308L180.183 145.528L182.928 137.082L175.743 131.862H184.624L187.368 123.416Z" fill="#FA3C12"/>
<path d="M203.446 83.5134L204.663 73.0128L213.151 78.3933L214.118 69.5845L221.859 74.9173L224.271 65.3942" stroke="#FA3C12" stroke-width="3.41548"/>
<circle cx="73.8689" cy="90.6385" r="8.55643" fill="#A4A4A4"/>
<rect x="79.332" y="139.951" width="7.33408" height="12.2235" transform="rotate(21.9912 79.332 139.951)" fill="#FED8D0"/>
<path d="M129.334 12.9922L130.981 18.0599H136.309L131.998 21.1919L133.645 26.2597L129.334 23.1276L125.023 26.2597L126.67 21.1919L122.359 18.0599H127.687L129.334 12.9922Z" fill="#FED8D0"/>
<circle cx="132.753" cy="161.333" r="3.66704" fill="#A4A4A4"/>
<path d="M25.9468 134.541C25.9468 134.541 24.7568 127.472 28.1721 126.063C31.0413 124.879 33.5288 130.114 35.8864 128.216C38.2745 126.294 32.3131 123.248 34.2545 120.949C36.2978 118.529 42.859 120.949 42.859 120.949" stroke="#FA3C12" stroke-width="4.09858"/>
<path d="M248.734 98.3257L271.045 136.125L255.072 141.759L248.734 98.3257Z" fill="#A4A4A4"/>
<circle cx="263.42" cy="33.3572" r="8.55643" fill="#FED8D0"/>
<rect x="14.1562" y="70.752" width="29.3363" height="9.77878" transform="rotate(-116.768 14.1562 70.752)" fill="#FED8D0"/>
</svg>
