<svg width="17" height="16" viewBox="0 0 17 16" fill="none" xmlns="http://www.w3.org/2000/svg">
<g clip-path="url(#clip0_3301_13977)">
<path d="M6.23057 6.00065C6.38731 5.5551 6.69667 5.17939 7.10388 4.94007C7.51108 4.70076 7.98984 4.61328 8.45536 4.69313C8.92088 4.77297 9.34312 5.015 9.64729 5.37634C9.95147 5.73767 10.1179 6.195 10.1172 6.66732C10.1172 8.00065 8.11724 8.66732 8.11724 8.66732M8.17057 11.334H8.17724M14.8372 8.00065C14.8372 11.6826 11.8525 14.6673 8.17057 14.6673C4.48867 14.6673 1.50391 11.6826 1.50391 8.00065C1.50391 4.31875 4.48867 1.33398 8.17057 1.33398C11.8525 1.33398 14.8372 4.31875 14.8372 8.00065Z" stroke="#98A2B3" stroke-width="1.33333" stroke-linecap="round" stroke-linejoin="round"/>
</g>
<defs>
<clipPath id="clip0_3301_13977">
<rect width="16" height="16" fill="white" transform="translate(0.171875)"/>
</clipPath>
</defs>
</svg>
