<svg width="21" height="21" viewBox="0 0 21 21" fill="none" xmlns="http://www.w3.org/2000/svg">
<path d="M15.5 13.8993C14.8667 13.8993 14.3 14.1494 13.8667 14.541L7.925 11.0827C7.96667 10.891 8 10.6993 8 10.4993C8 10.2993 7.96667 10.1077 7.925 9.91602L13.8 6.49102C14.25 6.90768 14.8417 7.16602 15.5 7.16602C16.8833 7.16602 18 6.04935 18 4.66602C18 3.28268 16.8833 2.16602 15.5 2.16602C14.1167 2.16602 13 3.28268 13 4.66602C13 4.86602 13.0333 5.05768 13.075 5.24935L7.2 8.67435C6.75 8.25768 6.15833 7.99935 5.5 7.99935C4.11667 7.99935 3 9.11602 3 10.4993C3 11.8827 4.11667 12.9993 5.5 12.9993C6.15833 12.9993 6.75 12.741 7.2 12.3243L13.1333 15.791C13.0917 15.966 13.0667 16.1493 13.0667 16.3327C13.0667 17.6743 14.1583 18.766 15.5 18.766C16.8417 18.766 17.9333 17.6743 17.9333 16.3327C17.9333 14.991 16.8417 13.8993 15.5 13.8993ZM15.5 3.83268C15.9583 3.83268 16.3333 4.20768 16.3333 4.66602C16.3333 5.12435 15.9583 5.49935 15.5 5.49935C15.0417 5.49935 14.6667 5.12435 14.6667 4.66602C14.6667 4.20768 15.0417 3.83268 15.5 3.83268ZM5.5 11.3327C5.04167 11.3327 4.66667 10.9577 4.66667 10.4993C4.66667 10.041 5.04167 9.66602 5.5 9.66602C5.95833 9.66602 6.33333 10.041 6.33333 10.4993C6.33333 10.9577 5.95833 11.3327 5.5 11.3327ZM15.5 17.1827C15.0417 17.1827 14.6667 16.8077 14.6667 16.3493C14.6667 15.891 15.0417 15.516 15.5 15.516C15.9583 15.516 16.3333 15.891 16.3333 16.3493C16.3333 16.8077 15.9583 17.1827 15.5 17.1827Z" fill="#FCFCFC"/>
</svg>
