<svg width="20" height="21" viewBox="0 0 20 21" fill="none" xmlns="http://www.w3.org/2000/svg">
<path d="M5.83203 18C5.3737 18 4.98148 17.8369 4.65536 17.5108C4.3287 17.1842 4.16536 16.7917 4.16536 16.3333V5.5C3.92925 5.5 3.7312 5.42028 3.5712 5.26083C3.41175 5.10083 3.33203 4.90278 3.33203 4.66667C3.33203 4.43056 3.41175 4.2325 3.5712 4.0725C3.7312 3.91306 3.92925 3.83333 4.16536 3.83333H7.4987C7.4987 3.59722 7.5787 3.39917 7.7387 3.23917C7.89814 3.07972 8.09592 3 8.33203 3H11.6654C11.9015 3 12.0995 3.07972 12.2595 3.23917C12.419 3.39917 12.4987 3.59722 12.4987 3.83333H15.832C16.0681 3.83333 16.2659 3.91306 16.4254 4.0725C16.5854 4.2325 16.6654 4.43056 16.6654 4.66667C16.6654 4.90278 16.5854 5.10083 16.4254 5.26083C16.2659 5.42028 16.0681 5.5 15.832 5.5V16.3333C15.832 16.7917 15.669 17.1842 15.3429 17.5108C15.0162 17.8369 14.6237 18 14.1654 18H5.83203ZM7.4987 13.8333C7.4987 14.0694 7.5787 14.2672 7.7387 14.4267C7.89814 14.5867 8.09592 14.6667 8.33203 14.6667C8.56814 14.6667 8.7662 14.5867 8.9262 14.4267C9.08564 14.2672 9.16536 14.0694 9.16536 13.8333V8C9.16536 7.76389 9.08564 7.56583 8.9262 7.40583C8.7662 7.24639 8.56814 7.16667 8.33203 7.16667C8.09592 7.16667 7.89814 7.24639 7.7387 7.40583C7.5787 7.56583 7.4987 7.76389 7.4987 8V13.8333ZM10.832 13.8333C10.832 14.0694 10.912 14.2672 11.072 14.4267C11.2315 14.5867 11.4293 14.6667 11.6654 14.6667C11.9015 14.6667 12.0995 14.5867 12.2595 14.4267C12.419 14.2672 12.4987 14.0694 12.4987 13.8333V8C12.4987 7.76389 12.419 7.56583 12.2595 7.40583C12.0995 7.24639 11.9015 7.16667 11.6654 7.16667C11.4293 7.16667 11.2315 7.24639 11.072 7.40583C10.912 7.56583 10.832 7.76389 10.832 8V13.8333Z" fill="#0B002A"/>
</svg>
