<svg width="20" height="21" viewBox="0 0 20 21" fill="none" xmlns="http://www.w3.org/2000/svg">
<path d="M11.5626 18.8327H8.43762C8.22928 18.8327 8.04873 18.7632 7.89595 18.6243C7.74317 18.4855 7.6529 18.3118 7.62512 18.1035L7.37512 16.166C7.19456 16.0966 7.02456 16.0132 6.86512 15.916C6.70512 15.8188 6.54873 15.7146 6.39595 15.6035L4.58345 16.3535C4.38901 16.423 4.19456 16.4299 4.00012 16.3743C3.80567 16.3188 3.6529 16.2007 3.54178 16.0202L2.00012 13.3327C1.88901 13.1521 1.85429 12.9577 1.89595 12.7493C1.93762 12.541 2.04179 12.3743 2.20845 12.2493L3.77095 11.0618C3.75706 10.9646 3.75012 10.8707 3.75012 10.7802V10.2177C3.75012 10.1277 3.75706 10.0341 3.77095 9.93685L2.20845 8.74935C2.04179 8.62435 1.93762 8.45768 1.89595 8.24935C1.85429 8.04102 1.88901 7.84657 2.00012 7.66602L3.54178 4.97852C3.63901 4.78407 3.78817 4.6624 3.98929 4.61352C4.19095 4.56518 4.38901 4.57574 4.58345 4.64518L6.39595 5.39518C6.54873 5.28407 6.70845 5.1799 6.87512 5.08268C7.04178 4.98546 7.20845 4.90213 7.37512 4.83268L7.62512 2.89518C7.6529 2.68685 7.74317 2.51324 7.89595 2.37435C8.04873 2.23546 8.22928 2.16602 8.43762 2.16602H11.5626C11.771 2.16602 11.9515 2.23546 12.1043 2.37435C12.2571 2.51324 12.3473 2.68685 12.3751 2.89518L12.6251 4.83268C12.8057 4.90213 12.976 4.98546 13.136 5.08268C13.2954 5.1799 13.4515 5.28407 13.6043 5.39518L15.4168 4.64518C15.6112 4.57574 15.8057 4.56879 16.0001 4.62435C16.1946 4.6799 16.3473 4.79796 16.4585 4.97852L18.0001 7.66602C18.1112 7.84657 18.146 8.04102 18.1043 8.24935C18.0626 8.45768 17.9585 8.62435 17.7918 8.74935L16.2293 9.93685C16.2432 10.0341 16.2501 10.1277 16.2501 10.2177V10.7802C16.2501 10.8707 16.2362 10.9646 16.2085 11.0618L17.771 12.2493C17.9376 12.3743 18.0418 12.541 18.0835 12.7493C18.1251 12.9577 18.0904 13.1521 17.9793 13.3327L16.4376 15.9993C16.3265 16.1799 16.1704 16.3016 15.9693 16.3643C15.7676 16.4266 15.5696 16.423 15.3751 16.3535L13.6043 15.6035C13.4515 15.7146 13.2918 15.8188 13.1251 15.916C12.9585 16.0132 12.7918 16.0966 12.6251 16.166L12.3751 18.1035C12.3473 18.3118 12.2571 18.4855 12.1043 18.6243C11.9515 18.7632 11.771 18.8327 11.5626 18.8327ZM10.0418 13.416C10.8473 13.416 11.5348 13.1313 12.1043 12.5618C12.6737 11.9924 12.9585 11.3049 12.9585 10.4993C12.9585 9.69379 12.6737 9.00629 12.1043 8.43685C11.5348 7.8674 10.8473 7.58268 10.0418 7.58268C9.22234 7.58268 8.53123 7.8674 7.96845 8.43685C7.40623 9.00629 7.12512 9.69379 7.12512 10.4993C7.12512 11.3049 7.40623 11.9924 7.96845 12.5618C8.53123 13.1313 9.22234 13.416 10.0418 13.416Z" fill="#7B7B7B"/>
</svg>
