<svg width="20" height="21" viewBox="0 0 20 21" fill="none" xmlns="http://www.w3.org/2000/svg">
<path d="M5 18.8327C4.30556 18.8327 3.71528 18.5896 3.22917 18.1035C2.74306 17.6174 2.5 17.0271 2.5 16.3327V13.8327H5V2.16602L6.25 3.41602L7.5 2.16602L8.75 3.41602L10 2.16602L11.25 3.41602L12.5 2.16602L13.75 3.41602L15 2.16602L16.25 3.41602L17.5 2.16602V16.3327C17.5 17.0271 17.2569 17.6174 16.7708 18.1035C16.2847 18.5896 15.6944 18.8327 15 18.8327H5ZM15 17.166C15.2361 17.166 15.4339 17.086 15.5933 16.926C15.7533 16.7666 15.8333 16.5688 15.8333 16.3327V4.66602H6.66667V13.8327H14.1667V16.3327C14.1667 16.5688 14.2467 16.7666 14.4067 16.926C14.5661 17.086 14.7639 17.166 15 17.166ZM7.5 7.99935V6.33268H12.5V7.99935H7.5ZM7.5 10.4993V8.83268H12.5V10.4993H7.5ZM14.1667 7.99935C13.9306 7.99935 13.7328 7.91935 13.5733 7.75935C13.4133 7.5999 13.3333 7.40213 13.3333 7.16602C13.3333 6.9299 13.4133 6.73185 13.5733 6.57185C13.7328 6.4124 13.9306 6.33268 14.1667 6.33268C14.4028 6.33268 14.6006 6.4124 14.76 6.57185C14.92 6.73185 15 6.9299 15 7.16602C15 7.40213 14.92 7.5999 14.76 7.75935C14.6006 7.91935 14.4028 7.99935 14.1667 7.99935ZM14.1667 10.4993C13.9306 10.4993 13.7328 10.4193 13.5733 10.2593C13.4133 10.0999 13.3333 9.90213 13.3333 9.66602C13.3333 9.4299 13.4133 9.23185 13.5733 9.07185C13.7328 8.9124 13.9306 8.83268 14.1667 8.83268C14.4028 8.83268 14.6006 8.9124 14.76 9.07185C14.92 9.23185 15 9.4299 15 9.66602C15 9.90213 14.92 10.0999 14.76 10.2593C14.6006 10.4193 14.4028 10.4993 14.1667 10.4993Z" fill="#7B7B7B"/>
</svg>
