<svg width="20" height="21" viewBox="0 0 20 21" fill="none" xmlns="http://www.w3.org/2000/svg">
<path fill-rule="evenodd" clip-rule="evenodd" d="M3.125 7.375V3.625H6.875V7.375H3.125ZM1.25 3C1.25 2.66848 1.3817 2.35054 1.61612 2.11612C1.85054 1.8817 2.16848 1.75 2.5 1.75H7.5C7.83152 1.75 8.14946 1.8817 8.38388 2.11612C8.6183 2.35054 8.75 2.66848 8.75 3V8C8.75 8.33152 8.6183 8.64946 8.38388 8.88388C8.14946 9.1183 7.83152 9.25 7.5 9.25H2.5C2.16848 9.25 1.85054 9.1183 1.61612 8.88388C1.3817 8.64946 1.25 8.33152 1.25 8V3ZM11.25 3.3125C11.25 3.06386 11.3488 2.8254 11.5246 2.64959C11.7004 2.47377 11.9389 2.375 12.1875 2.375H17.8125C18.0611 2.375 18.2996 2.47377 18.4754 2.64959C18.6512 2.8254 18.75 3.06386 18.75 3.3125C18.75 3.56114 18.6512 3.7996 18.4754 3.97541C18.2996 4.15123 18.0611 4.25 17.8125 4.25H12.1875C11.9389 4.25 11.7004 4.15123 11.5246 3.97541C11.3488 3.7996 11.25 3.56114 11.25 3.3125ZM12.1875 6.75C11.9389 6.75 11.7004 6.84877 11.5246 7.02459C11.3488 7.2004 11.25 7.43886 11.25 7.6875C11.25 7.93614 11.3488 8.1746 11.5246 8.35041C11.7004 8.52623 11.9389 8.625 12.1875 8.625H17.8125C18.0611 8.625 18.2996 8.52623 18.4754 8.35041C18.6512 8.1746 18.75 7.93614 18.75 7.6875C18.75 7.43886 18.6512 7.2004 18.4754 7.02459C18.2996 6.84877 18.0611 6.75 17.8125 6.75H12.1875ZM3.125 13.625V17.375H6.875V13.625H3.125ZM2.5 11.75C2.16848 11.75 1.85054 11.8817 1.61612 12.1161C1.3817 12.3505 1.25 12.6685 1.25 13V18C1.25 18.3315 1.3817 18.6495 1.61612 18.8839C1.85054 19.1183 2.16848 19.25 2.5 19.25H7.5C7.83152 19.25 8.14946 19.1183 8.38388 18.8839C8.6183 18.6495 8.75 18.3315 8.75 18V13C8.75 12.6685 8.6183 12.3505 8.38388 12.1161C8.14946 11.8817 7.83152 11.75 7.5 11.75H2.5ZM12.1875 12.375C11.9389 12.375 11.7004 12.4738 11.5246 12.6496C11.3488 12.8254 11.25 13.0639 11.25 13.3125C11.25 13.5611 11.3488 13.7996 11.5246 13.9754C11.7004 14.1512 11.9389 14.25 12.1875 14.25H17.8125C18.0611 14.25 18.2996 14.1512 18.4754 13.9754C18.6512 13.7996 18.75 13.5611 18.75 13.3125C18.75 13.0639 18.6512 12.8254 18.4754 12.6496C18.2996 12.4738 18.0611 12.375 17.8125 12.375H12.1875ZM12.1875 16.75C11.9389 16.75 11.7004 16.8488 11.5246 17.0246C11.3488 17.2004 11.25 17.4389 11.25 17.6875C11.25 17.9361 11.3488 18.1746 11.5246 18.3504C11.7004 18.5262 11.9389 18.625 12.1875 18.625H17.8125C18.0611 18.625 18.2996 18.5262 18.4754 18.3504C18.6512 18.1746 18.75 17.9361 18.75 17.6875C18.75 17.4389 18.6512 17.2004 18.4754 17.0246C18.2996 16.8488 18.0611 16.75 17.8125 16.75H12.1875Z" fill="#7B7B7B"/>
</svg>
