<svg width="20" height="21" viewBox="0 0 20 21" fill="none" xmlns="http://www.w3.org/2000/svg">
<g clip-path="url(#clip0_3804_20159)">
<path d="M19.9825 10.4971C19.9825 15.9926 15.5278 20.4474 10.0323 20.4474C4.53696 20.4474 0.0820312 15.9926 0.0820312 10.4971C0.0820312 5.0017 4.53696 0.546875 10.0323 0.546875C15.5278 0.546875 19.9825 5.0017 19.9825 10.4971Z" fill="#1BA27A"/>
<path d="M14.7012 5.56445H5.2793V7.83908H8.85293V11.1824H11.1276V7.83908H14.7012V5.56445Z" fill="#FCFCFC"/>
<path d="M10.0125 11.5387C7.05628 11.5387 4.65956 11.0709 4.65956 10.4936C4.65956 9.91653 7.05618 9.44857 10.0125 9.44857C12.9687 9.44857 15.3653 9.91653 15.3653 10.4936C15.3653 11.0709 12.9687 11.5387 10.0125 11.5387ZM16.0229 10.6679C16.0229 9.9236 13.332 9.32031 10.0125 9.32031C6.6931 9.32031 4.00195 9.9236 4.00195 10.6679C4.00195 11.3233 6.08862 11.8694 8.85369 11.9904V16.7898H11.1281V11.9923C13.9145 11.875 16.0229 11.3267 16.0229 10.6679Z" fill="#FCFCFC"/>
</g>
<defs>
<clipPath id="clip0_3804_20159">
<rect width="20" height="20" fill="white" transform="translate(0 0.5)"/>
</clipPath>
</defs>
</svg>
