<svg width="20" height="20" viewBox="0 0 20 20" fill="none" xmlns="http://www.w3.org/2000/svg">
<g clip-path="url(#clip0_3301_16941)">
<path d="M19.9825 9.99712C19.9825 15.4926 15.5278 19.9474 10.0323 19.9474C4.53696 19.9474 0.0820312 15.4926 0.0820312 9.99712C0.0820312 4.5017 4.53696 0.046875 10.0323 0.046875C15.5278 0.046875 19.9825 4.5017 19.9825 9.99712Z" fill="#1BA27A"/>
<path d="M14.7012 5.06445H5.2793V7.33908H8.85293V10.6824H11.1276V7.33908H14.7012V5.06445Z" fill="#FCFCFC"/>
<path d="M10.0125 11.0387C7.05628 11.0387 4.65956 10.5709 4.65956 9.99365C4.65956 9.41653 7.05618 8.94857 10.0125 8.94857C12.9687 8.94857 15.3653 9.41653 15.3653 9.99365C15.3653 10.5709 12.9687 11.0387 10.0125 11.0387ZM16.0229 10.1679C16.0229 9.4236 13.332 8.82031 10.0125 8.82031C6.6931 8.82031 4.00195 9.4236 4.00195 10.1679C4.00195 10.8233 6.08862 11.3694 8.85369 11.4904V16.2898H11.1281V11.4923C13.9145 11.375 16.0229 10.8267 16.0229 10.1679Z" fill="#FCFCFC"/>
</g>
<defs>
<clipPath id="clip0_3301_16941">
<rect width="20" height="20" fill="white"/>
</clipPath>
</defs>
</svg>
