<svg width="20" height="17" viewBox="0 0 20 17" fill="none" xmlns="http://www.w3.org/2000/svg">
<path fill-rule="evenodd" clip-rule="evenodd" d="M9.92846 16.2025H3.23569C3.32661 14.873 2.64088 13.9755 0.979005 13.6205L0.914062 2.29508C2.12133 1.85147 2.87767 1.08515 3.30096 0.0820312L14.4312 0.146974C14.962 1.35691 15.8532 1.96637 17.0565 2.05629L17.1651 4.63836L13.6938 4.74659L13.6285 3.05442L4.21249 3.22826L4.38601 13.1652L7.46663 13.0213C7.34141 12.6237 7.23916 12.1994 7.16057 11.7534C9.21975 10.2141 10.3597 9.38884 13.531 9.04814C13.6122 10.5918 13.4104 11.5739 14.0675 13.2175C14.8265 15.1145 17.28 16.7454 17.2713 16.7487C13.467 15.2753 13.0557 13.3111 12.4316 10.1255C11.5534 10.2144 10.6758 10.4746 9.9631 10.8459C9.49085 11.092 8.43211 11.8457 8.28324 12.1354C7.81199 13.051 9.51816 15.7476 10.1273 16.078L10.115 16.2754C10.0517 16.2531 9.98941 16.2285 9.9278 16.2022L9.92846 16.2028V16.2025ZM8.90803 13.1832H12.3876C12.6984 14.2273 14.0009 15.2167 14.7925 16.1496H10.5782C9.76161 15.252 8.91169 14.2656 8.90803 13.1832ZM17.668 16.5339C16.6422 14.5083 15.8882 12.4528 18.4563 8.81401C18.6678 8.51461 18.9735 8.31812 19.0847 7.95544C18.1742 7.3563 17.5398 6.932 16.2732 6.52769C15.4429 6.26293 13.6882 5.92589 12.6531 6.22463C12.4969 6.53369 12.2151 6.87705 12.1372 7.14448C13.7861 6.84541 16.8404 7.25172 17.6297 8.15759C17.5218 8.44667 17.3156 8.69878 17.1611 9.00485C16.0228 11.0174 15.3284 13.6441 17.668 16.5336V16.5339ZM17.3063 16.5292C16.7318 15.5218 15.7117 14.8151 15.4206 12.3066C15.1755 10.1915 15.9285 9.30791 16.2709 8.15493C15.0676 7.4329 10.6488 7.69367 9.39427 8.836L9.26871 9.74353C10.3128 9.31691 10.8636 8.97088 12.0992 8.7544C12.9521 8.6052 14.224 8.51061 14.9107 8.78671C14.6633 9.98432 14.2383 10.6234 14.5747 12.3875C14.7076 13.0866 14.9281 13.6884 15.2458 14.2772C15.4356 14.6286 16.5779 16.0943 17.3063 16.5292Z" fill="#FA3C12"/>
</svg>
