<svg width="19" height="17" viewBox="0 0 19 17" fill="none" xmlns="http://www.w3.org/2000/svg">
<path fill-rule="evenodd" clip-rule="evenodd" d="M9.0144 16.2045H2.32162C2.41254 14.875 1.72681 13.9774 0.0649429 13.6224L0 2.29704C1.20727 1.85343 1.96361 1.0871 2.3869 0.0839844L13.5171 0.148927C14.048 1.35886 14.9392 1.96833 16.1425 2.05825L16.251 4.64031L12.7798 4.74855L12.7145 3.05637L3.29843 3.23022L3.47194 13.1671L6.55257 13.0233C6.42734 12.6256 6.3251 12.2013 6.2465 11.7554C8.30569 10.2161 9.44569 9.39079 12.6169 9.05009C12.6982 10.5937 12.4963 11.5759 13.1534 13.2194C13.9124 15.1164 16.3659 16.7473 16.3573 16.7507C12.553 15.2773 12.1416 13.313 11.5175 10.1275C10.6393 10.2164 9.76174 10.4765 9.04904 10.8478C8.57679 11.094 7.51805 11.8476 7.36918 12.1374C6.89793 13.0529 8.6041 15.7495 9.21323 16.0799L9.2009 16.2774C9.13762 16.2551 9.07535 16.2304 9.01373 16.2041L9.0144 16.2048V16.2045ZM7.99397 13.1851H11.4736C11.7843 14.2292 13.0868 15.2187 13.8785 16.1515H9.66416C8.84755 15.254 7.99763 14.2675 7.99397 13.1851ZM16.7539 16.5358C15.7282 14.5103 14.9742 12.4548 17.5422 8.81597C17.7537 8.51656 18.0594 8.32007 18.1707 7.95739C17.2601 7.35825 16.6257 6.93396 15.3591 6.52965C14.5289 6.26488 12.7741 5.92784 11.739 6.22658C11.5828 6.53564 11.3011 6.879 11.2231 7.14644C12.872 6.84737 15.9263 7.25368 16.7156 8.15954C16.6077 8.44862 16.4016 8.70074 16.247 9.0068C15.1087 11.0194 14.4143 13.6461 16.7539 16.5355V16.5358ZM16.3922 16.5312C15.8177 15.5237 14.7976 14.817 14.5066 12.3086C14.2614 10.1934 15.0145 9.30987 15.3568 8.15688C14.1535 7.43485 9.73477 7.69562 8.4802 8.83795L8.35465 9.74548C9.39873 9.31886 9.94958 8.97283 11.1852 8.75635C12.0381 8.60715 13.31 8.51257 13.9967 8.78866C13.7492 9.98627 13.3243 10.6254 13.6606 12.3895C13.7935 13.0885 14.014 13.6903 14.3317 14.2792C14.5216 14.6305 15.6639 16.0962 16.3922 16.5312Z" fill="#FA3C12"/>
</svg>
