<svg width="17" height="9" viewBox="0 0 17 9" fill="none" xmlns="http://www.w3.org/2000/svg">
<path d="M7.83398 8.66732H4.50065C3.34787 8.66732 2.36537 8.26093 1.55315 7.44815C0.740373 6.63593 0.333984 5.65343 0.333984 4.50065C0.333984 3.34787 0.740373 2.3651 1.55315 1.55232C2.36537 0.740095 3.34787 0.333984 4.50065 0.333984H7.83398V2.00065H4.50065C3.80621 2.00065 3.21593 2.24371 2.72982 2.72982C2.24371 3.21593 2.00065 3.80621 2.00065 4.50065C2.00065 5.1951 2.24371 5.78537 2.72982 6.27148C3.21593 6.7576 3.80621 7.00065 4.50065 7.00065H7.83398V8.66732ZM5.33398 5.33398V3.66732H12.0007V5.33398H5.33398ZM9.50065 8.66732V7.00065H12.834C13.5284 7.00065 14.1187 6.7576 14.6048 6.27148C15.0909 5.78537 15.334 5.1951 15.334 4.50065C15.334 3.80621 15.0909 3.21593 14.6048 2.72982C14.1187 2.24371 13.5284 2.00065 12.834 2.00065H9.50065V0.333984H12.834C13.9868 0.333984 14.9695 0.740095 15.7823 1.55232C16.5945 2.3651 17.0007 3.34787 17.0007 4.50065C17.0007 5.65343 16.5945 6.63593 15.7823 7.44815C14.9695 8.26093 13.9868 8.66732 12.834 8.66732H9.50065Z" fill="#FA3C12"/>
</svg>
