<svg width="19" height="18" viewBox="0 0 19 18" fill="none" xmlns="http://www.w3.org/2000/svg">
<path fill-rule="evenodd" clip-rule="evenodd" d="M9.0144 16.7025H2.32162C2.41254 15.373 1.72681 14.4755 0.0649429 14.1205L0 2.79508C1.20727 2.35147 1.96361 1.58515 2.3869 0.582031L13.5171 0.646974C14.048 1.85691 14.9392 2.46637 16.1425 2.55629L16.251 5.13836L12.7798 5.24659L12.7145 3.55442L3.29843 3.72826L3.47194 13.6652L6.55257 13.5213C6.42734 13.1237 6.3251 12.6994 6.2465 12.2534C8.30569 10.7141 9.44569 9.88884 12.6169 9.54814C12.6982 11.0918 12.4963 12.0739 13.1534 13.7175C13.9124 15.6145 16.3659 17.2454 16.3573 17.2487C12.553 15.7753 12.1416 13.8111 11.5175 10.6255C10.6393 10.7144 9.76174 10.9746 9.04904 11.3459C8.57679 11.592 7.51805 12.3457 7.36918 12.6354C6.89793 13.551 8.6041 16.2476 9.21323 16.578L9.2009 16.7754C9.13762 16.7531 9.07535 16.7285 9.01373 16.7022L9.0144 16.7028V16.7025ZM7.99397 13.6832H11.4736C11.7843 14.7273 13.0868 15.7167 13.8785 16.6496H9.66416C8.84755 15.752 7.99763 14.7656 7.99397 13.6832ZM16.7539 17.0339C15.7282 15.0083 14.9742 12.9528 17.5422 9.31401C17.7537 9.01461 18.0594 8.81812 18.1707 8.45544C17.2601 7.8563 16.6257 7.432 15.3591 7.02769C14.5289 6.76293 12.7741 6.42589 11.739 6.72463C11.5828 7.03369 11.3011 7.37705 11.2231 7.64448C12.872 7.34541 15.9263 7.75172 16.7156 8.65759C16.6077 8.94667 16.4016 9.19878 16.247 9.50485C15.1087 11.5174 14.4143 14.1441 16.7539 17.0336V17.0339ZM16.3922 17.0292C15.8177 16.0218 14.7976 15.3151 14.5066 12.8066C14.2614 10.6915 15.0145 9.80791 15.3568 8.65493C14.1535 7.9329 9.73477 8.19367 8.4802 9.336L8.35465 10.2435C9.39873 9.81691 9.94958 9.47088 11.1852 9.2544C12.0381 9.1052 13.31 9.01061 13.9967 9.28671C13.7492 10.4843 13.3243 11.1234 13.6606 12.8875C13.7935 13.5866 14.014 14.1884 14.3317 14.7772C14.5216 15.1286 15.6639 16.5943 16.3922 17.0292Z" fill="#FA3C12"/>
</svg>
