<svg width="17" height="18" viewBox="0 0 17 18" fill="none" xmlns="http://www.w3.org/2000/svg">
<path d="M8.66508 0.666016C13.2684 0.666016 17.0001 4.39768 17.0001 9.00102C17.0001 13.6035 13.2684 17.3352 8.66508 17.3352C4.06174 17.3352 0.330078 13.6035 0.330078 9.00102C0.330078 4.39768 4.06174 0.666016 8.66508 0.666016ZM8.66508 1.91602C7.72825 1.90586 6.79871 2.0816 5.93026 2.43308C5.06181 2.78455 4.27169 3.30478 3.60563 3.96365C2.93957 4.62253 2.4108 5.40696 2.04993 6.27155C1.68905 7.13614 1.50324 8.06372 1.50324 9.0006C1.50324 9.93748 1.68905 10.8651 2.04993 11.7296C2.4108 12.5942 2.93957 13.3787 3.60563 14.0375C4.27169 14.6964 5.06181 15.2166 5.93026 15.5681C6.79871 15.9196 7.72825 16.0953 8.66508 16.0852C10.5251 16.0567 12.2993 15.2977 13.6045 13.9723C14.9098 12.6469 15.6414 10.8613 15.6414 9.00102C15.6414 7.14078 14.9098 5.35517 13.6045 4.02973C12.2993 2.70429 10.5251 1.94538 8.66508 1.91685V1.91602ZM8.66258 3.99935C9.98822 3.99935 11.2596 4.52596 12.1969 5.46333C13.1343 6.4007 13.6609 7.67204 13.6609 8.99768C13.6609 10.3233 13.1343 11.5947 12.1969 12.532C11.2596 13.4694 9.98822 13.996 8.66258 13.996C7.33694 13.996 6.06559 13.4694 5.12822 12.532C4.19085 11.5947 3.66424 10.3233 3.66424 8.99768C3.66424 7.67204 4.19085 6.4007 5.12822 5.46333C6.06559 4.52596 7.33694 3.99935 8.66258 3.99935Z" fill="#7B7B7B"/>
</svg>
